<svg id="svg-brazil" xmlns="http://www.w3.org/2000/svg" xmlns:xlink="http://www.w3.org/1999/xlink" width="80" height="80" viewBox="0 0 400 398.4"><g id="svg-brazil"><path id="path0" d="M130.977 1.366 C 129.910 2.432,129.400 2.520,128.646 1.766 C 127.036 0.156,126.414 0.672,126.920 3.198 C 127.528 6.238,126.289 7.753,122.320 8.821 C 120.619 9.280,118.848 10.362,118.385 11.227 C 117.713 12.484,116.701 12.800,113.350 12.800 C 108.562 12.800,105.613 14.410,105.575 17.045 C 105.551 18.674,105.473 18.700,104.486 17.400 C 103.902 16.630,102.677 16.000,101.764 16.000 C 99.148 16.000,95.967 14.536,94.413 12.618 C 92.618 10.401,89.128 11.614,88.347 14.727 C 87.696 17.319,88.440 18.400,90.872 18.400 C 93.497 18.400,94.014 20.078,92.370 23.258 C 89.607 28.600,91.581 33.694,96.561 34.074 C 100.690 34.389,100.844 34.530,97.683 35.105 C 94.880 35.616,94.184 36.354,92.774 40.318 C 92.033 42.403,91.850 42.500,90.959 41.283 C 90.072 40.068,89.446 40.428,84.903 44.764 C 79.093 50.310,79.512 50.081,78.968 48.000 C 78.388 45.782,74.400 45.740,74.400 47.953 C 74.400 51.243,65.686 47.087,65.626 43.768 C 65.526 38.246,60.588 34.321,58.117 37.800 C 56.931 39.470,56.777 39.499,55.980 38.200 C 54.578 35.916,51.731 36.367,52.196 38.800 L 52.578 40.800 44.776 40.800 C 37.305 40.800,36.954 40.878,36.512 42.637 C 35.549 46.476,37.033 49.177,40.253 49.448 C 42.551 49.642,43.200 50.038,43.200 51.248 C 43.200 52.983,42.363 53.243,41.041 51.921 C 39.803 50.683,36.990 51.766,35.488 54.059 C 33.601 56.939,34.644 62.981,37.232 64.160 C 41.291 66.010,41.543 75.064,38.005 91.941 C 35.544 103.679,35.682 103.385,33.164 102.238 C 31.490 101.475,30.900 101.603,29.346 103.062 C 27.923 104.400,27.294 104.574,26.554 103.834 C 25.815 103.095,25.384 103.096,24.640 103.840 C 24.112 104.368,22.932 104.800,22.018 104.800 C 16.338 104.800,8.850 113.858,7.980 121.782 C 7.521 125.960,6.952 127.786,5.876 128.528 C 2.842 130.620,2.400 131.333,2.400 134.143 C 2.400 135.938,1.873 137.434,1.000 138.112 C -0.317 139.137,-0.293 139.291,1.400 140.729 C 2.390 141.569,3.200 142.779,3.200 143.418 C 3.200 144.057,4.315 145.979,5.678 147.690 C 9.082 151.962,10.583 154.993,9.597 155.602 C 8.544 156.252,8.572 159.765,9.635 160.422 C 10.094 160.706,10.963 160.528,11.566 160.028 C 13.194 158.677,17.929 160.107,18.266 162.051 C 18.881 165.597,22.959 166.650,25.504 163.919 C 30.571 158.480,32.000 159.340,32.000 167.824 L 32.000 174.582 34.600 173.966 C 36.030 173.627,41.014 173.316,45.675 173.275 C 54.250 173.199,56.800 172.426,56.800 169.902 C 56.800 169.213,57.692 168.800,59.182 168.800 C 60.839 168.800,61.962 168.192,62.874 166.800 C 63.594 165.700,64.575 164.800,65.054 164.800 C 65.532 164.800,67.021 163.737,68.362 162.437 C 73.123 157.823,85.244 157.887,82.314 162.511 C 81.337 164.055,81.436 167.804,82.472 168.444 C 82.983 168.760,83.145 170.044,82.863 171.546 C 81.944 176.446,85.036 182.109,89.679 184.033 C 90.956 184.561,92.000 185.513,92.000 186.147 C 92.000 187.047,93.039 187.248,96.751 187.064 C 100.758 186.865,101.798 187.108,103.402 188.614 C 104.448 189.596,105.866 190.400,106.554 190.400 C 107.241 190.400,108.244 190.930,108.782 191.579 C 109.321 192.227,110.949 192.981,112.401 193.253 C 113.852 193.525,115.794 194.615,116.715 195.674 C 118.523 197.753,122.815 198.348,123.403 196.600 C 124.165 194.334,131.542 199.634,132.246 202.953 C 133.804 210.299,133.830 211.200,132.488 211.200 C 130.853 211.200,130.868 211.387,132.800 214.991 C 133.680 216.633,134.400 219.080,134.400 220.428 C 134.400 224.304,135.513 224.800,144.207 224.800 C 149.582 224.800,151.927 225.071,151.568 225.652 C 150.306 227.693,152.181 232.023,156.026 235.950 C 160.908 240.935,161.112 243.151,157.542 252.418 C 155.440 257.874,155.254 258.908,156.264 259.547 C 157.300 260.203,157.293 260.525,156.204 262.187 C 155.061 263.931,155.102 264.374,156.725 267.840 C 158.172 270.931,158.442 272.739,158.243 278.000 L 158.000 284.400 161.339 284.153 C 163.176 284.017,166.224 284.322,168.113 284.831 C 170.585 285.496,171.630 285.510,171.840 284.879 C 172.034 284.298,172.709 284.406,173.844 285.201 C 174.786 285.860,176.152 286.400,176.881 286.400 C 178.351 286.400,179.251 288.463,180.894 295.600 L 182.000 300.400 186.400 300.808 C 191.270 301.260,193.103 302.063,192.286 303.384 C 191.990 303.864,191.658 305.729,191.548 307.528 C 191.439 309.328,191.086 312.690,190.764 315.000 L 190.177 319.200 193.129 319.200 C 195.706 319.200,196.219 319.531,197.160 321.800 C 199.477 327.386,196.330 336.000,191.973 336.000 C 191.175 336.000,189.505 336.825,188.261 337.834 C 187.018 338.843,184.920 340.350,183.600 341.183 C 182.280 342.015,180.482 343.620,179.605 344.748 C 178.727 345.877,176.286 348.580,174.181 350.755 C 172.075 352.930,170.148 355.527,169.897 356.526 C 169.646 357.525,168.789 358.550,167.993 358.802 C 166.254 359.354,165.176 360.610,164.475 362.902 C 163.809 365.080,167.666 366.125,169.684 364.314 C 171.237 362.921,173.361 363.586,174.023 365.674 C 174.290 366.513,175.017 367.200,175.639 367.200 C 176.261 367.200,176.995 368.100,177.271 369.200 C 177.844 371.481,181.322 372.056,182.111 370.000 C 182.843 368.093,183.815 368.609,183.416 370.694 C 183.035 372.686,185.684 375.195,189.379 376.342 C 190.358 376.646,191.912 377.953,192.834 379.247 C 193.755 380.541,195.017 381.600,195.638 381.600 C 196.259 381.600,197.468 382.973,198.324 384.651 C 199.180 386.329,200.654 388.048,201.600 388.470 L 203.320 389.237 201.260 391.460 C 197.004 396.052,199.533 399.674,204.902 396.675 C 208.449 394.693,211.092 389.208,211.202 383.600 C 211.241 381.579,211.377 381.421,212.064 382.600 C 212.901 384.037,216.000 384.572,216.000 383.279 C 216.000 382.883,218.313 380.682,221.141 378.388 C 226.016 374.432,229.600 368.920,229.600 365.376 C 229.600 364.755,230.320 363.596,231.200 362.800 C 232.080 362.004,232.800 360.688,232.800 359.876 C 232.800 359.064,233.351 358.400,234.025 358.400 C 234.699 358.400,235.463 357.845,235.724 357.166 C 235.984 356.487,237.515 355.260,239.125 354.438 C 242.811 352.558,245.483 346.760,245.026 341.633 C 244.969 340.992,245.280 339.799,245.717 338.982 C 246.269 337.949,246.217 337.144,245.545 336.334 C 244.205 334.719,245.120 326.657,246.861 324.732 C 248.032 323.439,248.067 323.043,247.110 321.884 C 246.102 320.662,246.161 320.624,247.747 321.469 C 250.331 322.845,251.113 322.625,251.682 320.359 C 252.026 318.989,254.200 316.950,258.293 314.159 C 268.759 307.022,270.492 306.171,274.238 306.331 C 276.869 306.443,278.279 305.997,280.238 304.431 C 283.587 301.756,283.879 301.472,285.096 299.699 C 285.945 298.462,286.425 298.357,287.818 299.102 C 289.083 299.780,290.027 299.771,291.568 299.069 C 293.311 298.275,293.789 298.353,294.685 299.579 C 295.816 301.125,301.600 300.772,301.600 299.157 C 301.600 298.711,302.357 298.778,303.400 299.318 C 308.154 301.779,308.175 301.782,310.309 300.195 C 311.459 299.339,312.508 297.922,312.639 297.045 C 312.795 296.009,314.293 294.810,316.914 293.626 C 320.323 292.085,320.895 291.519,320.599 289.974 C 320.352 288.683,320.566 288.267,321.325 288.559 C 322.065 288.842,322.400 288.284,322.400 286.769 C 322.400 285.310,323.548 283.275,325.800 280.745 C 334.897 270.523,338.397 264.919,338.399 260.573 C 338.400 257.414,341.362 250.657,343.538 248.852 C 344.257 248.255,344.806 246.555,344.813 244.902 C 344.821 243.306,345.991 239.120,347.413 235.600 C 349.895 229.460,350.162 227.422,349.508 219.600 C 349.434 218.720,349.861 216.283,350.457 214.185 C 351.308 211.186,351.339 209.838,350.599 207.879 C 349.836 205.857,349.879 205.072,350.829 203.715 C 351.473 202.796,352.000 201.404,352.000 200.622 C 352.000 199.840,352.360 199.200,352.800 199.200 C 353.240 199.200,353.606 198.570,353.612 197.800 C 353.622 196.687,353.769 196.627,354.326 197.508 C 356.020 200.182,366.646 192.098,367.638 187.380 C 367.890 186.181,368.435 184.575,368.848 183.811 C 369.262 183.047,369.600 181.877,369.600 181.211 C 369.600 180.545,369.889 180.090,370.241 180.200 C 370.594 180.310,372.044 179.081,373.464 177.469 C 374.883 175.857,377.834 173.173,380.022 171.505 C 382.210 169.836,384.000 168.063,384.000 167.564 C 384.000 167.065,384.900 166.247,386.000 165.746 C 387.100 165.244,388.000 164.210,388.000 163.447 C 388.000 162.685,389.425 160.607,391.166 158.830 C 397.850 152.010,400.531 142.199,399.188 129.482 C 397.447 113.014,394.933 109.486,384.939 109.486 C 378.518 109.486,375.100 107.443,363.322 96.570 C 353.264 87.284,341.300 82.825,333.947 85.620 C 332.227 86.274,331.095 86.105,328.371 84.786 C 326.207 83.738,324.223 83.314,322.964 83.630 C 321.854 83.909,320.738 83.747,320.440 83.265 C 320.146 82.789,319.071 82.400,318.051 82.400 C 317.031 82.400,315.781 81.900,315.274 81.289 C 314.766 80.677,313.552 80.004,312.576 79.791 C 311.599 79.579,310.201 79.153,309.470 78.844 C 308.555 78.458,308.056 78.720,307.870 79.684 C 307.617 80.999,307.508 80.993,306.113 79.598 C 304.750 78.236,304.563 78.222,303.887 79.430 C 303.375 80.345,302.481 80.621,300.974 80.332 C 299.034 79.958,298.637 80.284,297.287 83.357 C 296.190 85.854,295.677 86.405,295.421 85.361 C 295.227 84.569,295.727 82.989,296.534 81.848 C 299.571 77.555,299.636 77.407,298.645 77.045 C 298.120 76.854,297.863 76.247,298.074 75.697 C 298.621 74.271,294.033 69.734,291.410 69.107 C 290.195 68.817,288.741 68.217,288.180 67.775 C 287.619 67.333,285.688 66.888,283.889 66.786 C 282.091 66.685,280.340 66.150,279.999 65.598 C 279.658 65.047,278.955 64.857,278.436 65.178 C 277.913 65.501,277.054 65.159,276.506 64.410 C 275.071 62.447,267.301 60.055,263.287 60.341 C 258.892 60.654,251.783 67.011,253.506 69.087 C 254.329 70.079,254.234 70.207,252.925 69.865 C 250.605 69.258,250.188 65.761,252.306 64.672 C 259.769 60.833,258.389 53.459,250.616 55.641 C 249.397 55.983,248.068 56.183,247.662 56.085 C 247.256 55.988,244.916 55.613,242.462 55.252 C 240.008 54.891,238.977 54.551,240.172 54.498 C 242.887 54.376,244.517 51.825,242.793 50.395 C 242.148 49.859,241.076 49.630,240.410 49.885 C 239.582 50.203,239.200 49.852,239.200 48.775 C 239.200 46.521,237.365 46.830,234.422 49.579 C 231.824 52.007,231.413 54.708,233.613 54.908 C 234.266 54.967,235.340 55.062,236.000 55.120 C 236.746 55.184,236.443 55.617,235.200 56.264 C 233.391 57.204,233.102 57.127,232.174 55.452 C 231.027 53.380,228.800 52.950,228.800 54.800 C 228.800 55.460,228.440 56.000,228.000 56.000 C 226.298 56.000,227.358 54.416,231.230 51.175 C 240.988 43.005,242.772 35.200,234.881 35.200 C 232.919 35.200,230.718 32.748,231.752 31.715 C 232.025 31.442,231.320 28.964,230.186 26.209 C 229.053 23.454,227.882 19.405,227.585 17.211 C 225.947 5.103,220.691 7.273,213.011 23.228 C 209.092 31.370,206.982 33.343,204.446 31.238 C 202.659 29.755,198.245 29.492,196.818 30.784 C 195.322 32.137,190.845 30.959,188.474 28.588 C 186.748 26.862,185.411 26.843,182.210 28.498 C 180.250 29.512,179.377 29.596,178.231 28.880 C 175.072 26.907,171.883 31.563,174.560 34.240 C 175.910 35.590,174.319 35.390,172.447 33.975 C 170.467 32.477,169.302 32.470,169.874 33.959 C 170.493 35.572,167.837 36.256,165.351 35.123 C 162.962 34.035,159.200 34.761,159.200 36.311 C 159.200 37.006,157.853 37.544,155.428 37.817 C 152.576 38.139,151.230 38.776,149.912 40.429 C 146.713 44.440,138.514 39.509,139.514 34.176 C 139.894 32.150,139.643 31.250,138.402 30.188 C 135.920 28.062,137.363 21.455,140.580 20.220 C 143.055 19.271,140.231 8.800,137.500 8.800 C 135.565 8.800,134.238 6.122,134.889 3.531 C 135.240 2.133,135.045 1.193,134.308 0.726 C 132.783 -0.240,132.535 -0.192,130.977 1.366 M231.765 61.002 C 231.951 63.936,230.758 65.910,228.400 66.570 C 227.520 66.817,226.080 67.311,225.200 67.669 C 223.813 68.232,223.874 67.992,225.659 65.866 C 226.791 64.516,228.185 62.285,228.756 60.906 C 230.101 57.659,231.556 57.705,231.765 61.002 M219.535 69.585 C 218.616 70.504,212.931 71.722,213.759 70.822 C 214.220 70.322,215.791 69.830,219.960 68.882 C 220.158 68.837,219.967 69.153,219.535 69.585 M249.713 70.400 C 250.143 70.400,250.272 70.760,250.000 71.200 C 249.728 71.640,248.311 72.000,246.851 72.000 C 245.391 72.000,243.736 72.554,243.175 73.231 C 242.403 74.161,241.305 74.334,238.677 73.940 C 235.795 73.508,235.200 73.639,235.200 74.709 C 235.200 76.469,234.532 76.330,232.755 74.200 C 230.792 71.847,230.809 70.400,232.800 70.400 C 233.680 70.400,234.400 70.893,234.400 71.495 C 234.400 72.698,240.875 73.939,241.585 72.872 C 242.339 71.737,246.780 69.768,247.865 70.087 C 248.451 70.259,249.283 70.400,249.713 70.400 M223.235 367.578 C 223.792 367.234,224.085 367.278,223.886 367.676 C 223.687 368.074,223.047 369.360,222.463 370.533 C 221.879 371.706,220.726 372.842,219.901 373.058 C 219.075 373.274,218.400 374.156,218.400 375.019 C 218.400 375.963,217.125 377.431,215.200 378.705 C 211.254 381.316,211.016 379.917,214.800 376.348 C 216.340 374.896,217.600 373.311,217.600 372.826 C 217.600 372.341,218.191 371.042,218.913 369.939 C 219.985 368.304,220.057 367.535,219.303 365.767 L 218.379 363.600 220.301 365.902 C 221.526 367.369,222.590 367.977,223.235 367.578 " stroke="none" fill="#000000" fill-rule="evenodd"></path></g></svg>