<svg id="svg-usa" xmlns="http://www.w3.org/2000/svg" xmlns:xlink="http://www.w3.org/1999/xlink" width="80" height="50.56" viewBox="0 0 400 252.8"><g id="svg-usa"><path id="path0" d="M38.365 4.600 C 38.322 9.219,36.099 15.957,34.238 17.104 C 32.458 18.202,31.352 17.078,32.947 15.792 C 35.490 13.741,35.545 11.595,33.014 13.209 L 30.800 14.620 33.000 12.266 C 35.908 9.155,35.779 8.264,32.211 6.773 C 30.567 6.086,28.408 4.759,27.414 3.825 C 24.936 1.497,24.737 1.921,23.685 11.763 C 23.178 16.513,22.496 20.824,22.170 21.342 C 21.805 21.922,22.231 22.493,23.277 22.824 L 24.977 23.364 23.252 24.282 C 22.202 24.841,20.167 28.245,18.051 32.981 C 16.139 37.261,12.881 43.650,10.813 47.179 C 7.742 52.416,6.919 54.661,6.333 59.398 C 5.281 67.914,4.949 69.052,2.304 73.223 C 0.147 76.624,-0.004 77.260,0.856 79.335 C 1.470 80.817,1.632 83.444,1.307 86.626 C 0.530 94.210,4.326 106.507,6.421 103.193 C 6.953 102.352,7.147 103.062,7.079 105.600 C 7.026 107.580,6.825 108.385,6.634 107.388 C 6.442 106.392,5.951 105.783,5.543 106.035 C 4.364 106.764,4.680 111.473,6.038 113.412 C 6.875 114.606,7.114 116.047,6.774 117.855 C 6.403 119.835,6.996 122.487,9.059 128.065 C 10.852 132.914,11.711 136.455,11.467 138.000 C 11.132 140.120,11.441 140.587,14.122 142.000 C 17.328 143.691,24.972 150.068,25.529 151.517 C 25.709 151.987,26.674 153.014,27.672 153.799 C 30.332 155.892,32.798 160.255,32.812 162.894 C 32.831 166.460,33.624 167.049,39.620 167.954 C 42.689 168.417,46.310 168.982,47.667 169.210 C 49.025 169.437,51.457 170.799,53.073 172.237 C 54.689 173.674,61.271 178.040,67.699 181.937 L 79.387 189.023 90.693 190.918 C 101.988 192.811,102.001 192.812,103.098 191.207 C 104.716 188.837,117.502 189.335,119.117 191.830 C 119.383 192.241,121.760 195.005,124.400 197.972 C 129.709 203.940,131.129 206.094,131.172 208.240 C 131.304 214.946,143.083 221.826,146.171 217.000 C 151.503 208.665,161.078 212.602,167.508 225.775 C 169.072 228.979,171.442 232.819,172.776 234.308 C 174.109 235.798,175.200 237.847,175.200 238.863 C 175.200 243.875,180.295 248.478,188.475 250.856 C 193.845 252.417,194.000 252.299,192.945 247.443 C 191.443 240.532,191.225 238.400,192.020 238.400 C 192.449 238.400,192.800 237.362,192.800 236.093 C 192.800 234.449,193.266 233.665,194.423 233.362 C 195.316 233.129,195.946 232.515,195.823 231.999 C 195.700 231.482,196.860 230.358,198.400 229.501 C 199.940 228.644,201.110 227.595,201.000 227.171 C 200.890 226.747,201.790 226.399,203.000 226.397 C 207.321 226.391,213.547 221.361,213.582 217.847 C 213.604 215.710,215.133 214.598,216.038 216.062 C 216.587 216.950,217.391 216.951,220.836 216.068 C 223.734 215.325,227.135 215.176,232.176 215.571 C 237.273 215.969,239.221 215.881,238.841 215.267 C 237.666 213.365,242.178 214.523,244.615 216.749 C 247.364 219.259,249.158 219.812,251.400 218.837 C 252.170 218.503,253.340 218.436,254.000 218.689 C 254.816 219.003,255.200 218.646,255.200 217.575 C 255.200 215.469,256.626 215.591,260.168 217.998 C 262.214 219.388,263.281 219.716,263.676 219.076 C 264.288 218.086,261.963 216.000,260.247 216.000 C 259.013 216.000,258.853 214.709,260.000 214.000 C 260.440 213.728,260.800 212.763,260.800 211.855 C 260.800 210.525,260.581 210.386,259.671 211.141 C 258.854 211.819,258.392 211.833,257.995 211.192 C 257.665 210.658,256.495 210.516,255.050 210.833 C 253.003 211.283,252.697 211.143,252.957 209.880 C 253.201 208.696,253.895 208.441,256.431 208.603 C 258.174 208.714,260.957 208.264,262.616 207.603 C 264.275 206.941,266.872 206.400,268.388 206.400 C 270.413 206.400,271.395 205.931,272.091 204.630 L 273.039 202.859 273.694 204.630 C 274.468 206.723,275.586 206.826,279.557 205.166 C 284.331 203.172,291.449 204.314,294.134 207.505 C 296.638 210.481,298.371 210.400,302.348 207.122 C 306.005 204.107,306.308 204.150,311.287 208.400 C 313.606 210.380,315.770 212.000,316.095 212.000 C 318.046 212.000,319.200 214.828,319.200 219.610 C 319.200 222.413,319.560 224.928,320.000 225.200 C 320.440 225.472,320.800 225.313,320.800 224.847 C 320.800 224.381,321.331 224.000,321.980 224.000 C 322.915 224.000,322.999 224.424,322.383 226.045 C 321.434 228.542,323.328 232.774,325.669 233.386 C 326.511 233.606,327.200 234.263,327.200 234.845 C 327.200 235.427,329.695 238.339,332.746 241.316 C 335.796 244.293,338.114 247.015,337.898 247.364 C 337.347 248.256,339.811 248.157,341.568 247.217 C 346.728 244.455,345.582 227.768,339.919 223.200 C 338.829 222.320,336.763 217.507,337.184 216.826 C 337.431 216.427,335.853 213.373,333.678 210.041 C 324.836 196.497,325.488 185.458,335.731 175.293 C 337.777 173.262,340.565 169.440,341.926 166.800 C 343.787 163.190,345.144 161.637,347.400 160.534 C 349.050 159.728,350.400 158.542,350.400 157.900 C 350.400 156.149,357.595 148.800,359.309 148.800 C 360.129 148.800,360.800 148.398,360.800 147.907 C 360.800 147.408,360.095 147.198,359.204 147.431 C 357.853 147.784,357.682 147.553,358.091 145.924 C 358.394 144.715,358.226 144.000,357.640 144.000 C 357.126 144.000,356.928 143.640,357.200 143.200 C 357.472 142.760,358.561 142.400,359.619 142.400 C 361.558 142.400,363.200 140.407,363.200 138.053 C 363.200 137.176,362.419 136.795,360.600 136.782 L 358.000 136.764 359.906 135.299 C 362.702 133.149,361.386 129.529,357.401 128.408 C 354.237 127.517,352.260 126.086,354.800 126.524 C 356.683 126.849,356.615 124.450,354.679 122.283 C 353.738 121.230,353.712 120.895,354.551 120.613 C 356.159 120.072,353.945 117.765,350.899 116.808 L 348.400 116.023 351.000 116.273 C 353.863 116.548,354.144 115.851,352.400 112.800 C 350.811 110.020,350.926 106.116,352.659 103.975 C 354.104 102.191,354.115 102.221,353.774 106.939 C 353.441 111.533,353.536 111.818,356.388 114.843 C 358.860 117.463,359.280 118.399,358.936 120.519 C 358.365 124.034,359.273 124.551,360.576 121.452 C 363.104 115.439,362.873 110.028,359.931 106.312 C 357.058 102.686,356.924 102.791,362.288 104.464 C 363.459 104.829,364.054 104.231,365.088 101.648 C 366.804 97.358,366.874 90.400,365.200 90.400 C 360.976 90.400,368.208 82.331,375.543 78.862 C 378.522 77.452,380.331 76.033,380.834 74.712 C 381.253 73.607,381.940 72.916,382.359 73.175 C 383.067 73.612,390.400 70.623,390.400 69.897 C 390.400 69.717,389.559 69.781,388.530 70.039 C 380.467 72.063,379.400 53.095,387.259 47.419 C 388.006 46.879,388.839 45.553,389.110 44.472 C 389.382 43.391,390.323 42.278,391.202 41.999 C 392.081 41.720,392.800 41.156,392.800 40.746 C 392.800 40.336,393.303 40.000,393.917 40.000 C 395.598 40.000,400.026 34.597,399.490 33.201 C 399.236 32.540,398.733 32.000,398.371 32.000 C 396.692 32.000,391.804 26.154,389.935 21.910 C 386.736 14.647,384.065 12.630,381.592 15.610 C 380.812 16.549,380.336 16.611,379.460 15.884 C 377.290 14.083,375.279 20.365,375.120 29.439 C 374.944 39.508,372.908 41.599,358.686 46.320 L 347.600 50.000 344.950 54.000 C 342.695 57.404,342.364 58.499,342.728 61.348 C 343.395 66.577,340.239 68.869,330.881 69.949 C 325.674 70.551,324.541 71.570,325.197 75.067 C 326.034 79.527,311.208 92.415,304.151 93.361 C 296.612 94.372,295.206 92.212,298.797 85.136 C 301.155 80.488,301.220 79.523,299.484 75.016 C 297.250 69.218,296.299 68.730,293.605 72.000 C 290.589 75.662,288.688 74.479,290.861 70.292 C 293.862 64.510,292.473 59.288,287.366 57.154 C 281.466 54.689,278.379 56.301,278.083 62.000 C 278.022 63.170,277.510 63.548,276.178 63.406 C 272.669 63.031,271.500 73.736,274.136 82.098 C 275.780 87.313,274.758 91.765,271.070 95.453 C 264.046 102.477,260.496 80.031,266.031 63.600 C 266.328 62.720,265.870 63.080,265.015 64.400 C 263.210 67.184,260.800 69.357,260.800 68.200 C 260.800 64.908,266.742 55.653,268.438 56.304 C 269.013 56.524,269.931 56.165,270.478 55.506 C 272.352 53.247,276.973 51.822,279.172 52.824 C 280.580 53.465,281.241 53.477,281.445 52.864 C 281.604 52.389,282.603 52.000,283.667 52.000 C 284.730 52.000,285.589 51.730,285.575 51.400 C 285.509 49.845,283.217 48.000,281.352 48.000 C 280.212 48.000,278.958 47.426,278.566 46.724 C 277.929 45.586,277.292 45.672,272.663 47.524 C 266.396 50.031,265.636 50.059,261.468 47.933 C 259.671 47.016,257.525 46.442,256.700 46.658 C 255.116 47.072,254.559 45.291,255.996 44.403 C 256.433 44.132,257.213 43.121,257.728 42.155 C 258.569 40.579,258.386 40.624,255.932 42.596 C 248.131 48.866,238.403 52.570,239.594 48.817 C 240.094 47.245,240.075 47.245,236.648 48.783 C 230.040 51.750,234.072 44.788,241.503 40.400 C 246.419 37.498,246.581 36.831,242.400 36.700 C 240.640 36.645,237.490 36.534,235.400 36.454 C 233.310 36.374,229.913 35.490,227.851 34.490 C 225.790 33.490,223.270 32.761,222.251 32.869 C 218.360 33.283,214.015 31.370,213.052 28.818 C 212.083 26.251,210.400 25.532,210.400 27.686 C 210.400 30.063,150.625 27.293,138.400 24.350 C 137.300 24.085,130.820 23.015,124.000 21.972 C 104.404 18.975,87.049 15.334,74.400 11.566 C 65.757 8.992,51.125 4.496,45.622 2.725 C 37.993 0.268,38.406 0.161,38.365 4.600 " stroke="none" fill="#000000" fill-rule="evenodd"></path></g></svg>